<svg width="252" height="147" viewBox="0 0 252 147" fill="none" xmlns="http://www.w3.org/2000/svg">
<g clip-path="url(#clip0_90_32)">
<rect width="252" height="147" fill="white"/>
<path d="M16.7216 140H5.21591V100.727H17.4119C21.1577 100.727 24.3601 101.507 27.0192 103.067C29.6911 104.626 31.7365 106.864 33.1555 109.778C34.5746 112.693 35.2841 116.19 35.2841 120.268C35.2841 124.384 34.5554 127.919 33.098 130.872C31.6534 133.812 29.544 136.069 26.7699 137.641C24.0085 139.214 20.6591 140 16.7216 140ZM8.80185 136.778H16.5107C19.8857 136.778 22.7109 136.114 24.9865 134.784C27.2621 133.455 28.9688 131.556 30.1065 129.089C31.2443 126.621 31.8132 123.681 31.8132 120.268C31.8004 116.88 31.2379 113.965 30.1257 111.523C29.0263 109.082 27.3899 107.209 25.2166 105.905C23.0561 104.601 20.3842 103.949 17.201 103.949H8.80185V136.778ZM54.7143 140.614C52.1703 140.614 49.9203 139.968 47.9643 138.677C46.0211 137.386 44.4998 135.602 43.4004 133.327C42.301 131.038 41.7512 128.398 41.7512 125.407C41.7512 122.39 42.301 119.737 43.4004 117.449C44.4998 115.148 46.0211 113.358 47.9643 112.08C49.9203 110.788 52.1703 110.143 54.7143 110.143C57.2583 110.143 59.502 110.788 61.4451 112.08C63.3883 113.371 64.9096 115.161 66.0091 117.449C67.1213 119.737 67.6774 122.39 67.6774 125.407C67.6774 128.398 67.1277 131.038 66.0282 133.327C64.9288 135.602 63.4011 137.386 61.4451 138.677C59.502 139.968 57.2583 140.614 54.7143 140.614ZM54.7143 137.488C56.7598 137.488 58.492 136.938 59.911 135.839C61.3301 134.739 62.4039 133.276 63.1326 131.447C63.8741 129.619 64.2449 127.606 64.2449 125.407C64.2449 123.208 63.8741 121.188 63.1326 119.347C62.4039 117.506 61.3301 116.03 59.911 114.918C58.492 113.805 56.7598 113.249 54.7143 113.249C52.6816 113.249 50.9494 113.805 49.5176 114.918C48.0985 116.03 47.0183 117.506 46.2768 119.347C45.5481 121.188 45.1838 123.208 45.1838 125.407C45.1838 127.606 45.5481 129.619 46.2768 131.447C47.0183 133.276 48.0985 134.739 49.5176 135.839C50.9366 136.938 52.6689 137.488 54.7143 137.488ZM80.7076 140L71.8098 110.545H75.415L82.3951 134.842H82.6444L89.6053 110.545H93.2296L100.133 134.784H100.401L107.382 110.545H110.987L102.089 140H98.5605L91.5804 115.857H91.2161L84.236 140H80.7076ZM121.035 121.591V140H117.622V110.545H120.939V115.167H121.246C121.936 113.658 123.01 112.45 124.468 111.543C125.938 110.622 127.753 110.162 129.914 110.162C131.895 110.162 133.634 110.577 135.129 111.408C136.638 112.227 137.808 113.435 138.639 115.033C139.482 116.631 139.904 118.593 139.904 120.92V140H136.491V121.131C136.491 118.714 135.813 116.803 134.458 115.397C133.116 113.991 131.313 113.288 129.051 113.288C127.504 113.288 126.129 113.62 124.928 114.285C123.726 114.95 122.774 115.908 122.07 117.161C121.38 118.401 121.035 119.878 121.035 121.591ZM152.306 100.727V140H148.893V100.727H152.306ZM172.787 140.614C170.243 140.614 167.993 139.968 166.037 138.677C164.093 137.386 162.572 135.602 161.473 133.327C160.373 131.038 159.824 128.398 159.824 125.407C159.824 122.39 160.373 119.737 161.473 117.449C162.572 115.148 164.093 113.358 166.037 112.08C167.993 110.788 170.243 110.143 172.787 110.143C175.331 110.143 177.574 110.788 179.517 112.08C181.461 113.371 182.982 115.161 184.081 117.449C185.194 119.737 185.75 122.39 185.75 125.407C185.75 128.398 185.2 131.038 184.1 133.327C183.001 135.602 181.473 137.386 179.517 138.677C177.574 139.968 175.331 140.614 172.787 140.614ZM172.787 137.488C174.832 137.488 176.564 136.938 177.983 135.839C179.402 134.739 180.476 133.276 181.205 131.447C181.946 129.619 182.317 127.606 182.317 125.407C182.317 123.208 181.946 121.188 181.205 119.347C180.476 117.506 179.402 116.03 177.983 114.918C176.564 113.805 174.832 113.249 172.787 113.249C170.754 113.249 169.022 113.805 167.59 114.918C166.171 116.03 165.091 117.506 164.349 119.347C163.62 121.188 163.256 123.208 163.256 125.407C163.256 127.606 163.62 129.619 164.349 131.447C165.091 133.276 166.171 134.739 167.59 135.839C169.009 136.938 170.741 137.488 172.787 137.488ZM201.469 140.671C199.692 140.671 198.069 140.326 196.599 139.636C195.128 138.933 193.959 137.923 193.089 136.606C192.22 135.276 191.785 133.665 191.785 131.773C191.785 130.316 192.06 129.089 192.61 128.092C193.16 127.094 193.939 126.276 194.949 125.637C195.959 124.998 197.155 124.493 198.535 124.122C199.916 123.751 201.437 123.464 203.099 123.259C204.748 123.055 206.142 122.876 207.28 122.722C208.43 122.569 209.306 122.326 209.907 121.994C210.508 121.661 210.808 121.124 210.808 120.383V119.692C210.808 117.685 210.207 116.107 209.006 114.956C207.817 113.793 206.104 113.211 203.866 113.211C201.744 113.211 200.012 113.678 198.67 114.611C197.34 115.544 196.407 116.643 195.87 117.909L192.629 116.739C193.294 115.129 194.214 113.844 195.39 112.885C196.567 111.913 197.883 111.217 199.341 110.795C200.798 110.36 202.275 110.143 203.77 110.143C204.895 110.143 206.065 110.29 207.28 110.584C208.507 110.878 209.645 111.389 210.693 112.118C211.741 112.834 212.591 113.837 213.243 115.129C213.895 116.407 214.221 118.031 214.221 119.999V140H210.808V135.34H210.597C210.188 136.21 209.581 137.053 208.775 137.871C207.97 138.69 206.96 139.361 205.746 139.885C204.531 140.409 203.106 140.671 201.469 140.671ZM201.93 137.545C203.745 137.545 205.317 137.143 206.647 136.337C207.976 135.532 208.999 134.464 209.715 133.135C210.444 131.793 210.808 130.316 210.808 128.705V124.448C210.552 124.691 210.124 124.908 209.523 125.1C208.935 125.292 208.251 125.464 207.471 125.618C206.704 125.759 205.937 125.88 205.17 125.982C204.403 126.085 203.713 126.174 203.099 126.251C201.437 126.455 200.018 126.775 198.842 127.21C197.666 127.644 196.765 128.245 196.138 129.012C195.512 129.766 195.199 130.738 195.199 131.927C195.199 133.717 195.838 135.104 197.116 136.088C198.395 137.06 199.999 137.545 201.93 137.545ZM233.906 140.614C231.49 140.614 229.374 139.974 227.558 138.696C225.743 137.418 224.324 135.634 223.301 133.346C222.291 131.058 221.786 128.392 221.786 125.349C221.786 122.32 222.291 119.667 223.301 117.391C224.324 115.103 225.749 113.326 227.578 112.06C229.406 110.782 231.534 110.143 233.963 110.143C235.753 110.143 237.242 110.462 238.431 111.102C239.62 111.728 240.573 112.508 241.289 113.441C242.004 114.374 242.561 115.282 242.957 116.164H243.264V100.727H246.696V140H243.36V134.535H242.957C242.561 135.43 241.998 136.35 241.269 137.296C240.541 138.229 239.575 139.016 238.374 139.655C237.185 140.294 235.695 140.614 233.906 140.614ZM234.308 137.488C236.213 137.488 237.837 136.97 239.179 135.935C240.521 134.886 241.544 133.448 242.247 131.62C242.963 129.779 243.321 127.67 243.321 125.292C243.321 122.94 242.97 120.862 242.267 119.06C241.563 117.244 240.541 115.825 239.198 114.803C237.856 113.767 236.226 113.249 234.308 113.249C232.34 113.249 230.678 113.786 229.323 114.86C227.98 115.921 226.958 117.359 226.254 119.175C225.564 120.99 225.219 123.029 225.219 125.292C225.219 127.58 225.57 129.645 226.274 131.486C226.977 133.327 227.999 134.79 229.342 135.877C230.697 136.951 232.352 137.488 234.308 137.488Z" fill="black"/>
<path d="M87 76H159" stroke="black" stroke-width="3" stroke-linecap="round"/>
<path d="M121.939 65.0607C122.525 65.6464 123.475 65.6464 124.061 65.0607L133.607 55.5147C134.192 54.9289 134.192 53.9792 133.607 53.3934C133.021 52.8076 132.071 52.8076 131.485 53.3934L123 61.8787L114.515 53.3934C113.929 52.8076 112.979 52.8076 112.393 53.3934C111.808 53.9792 111.808 54.9289 112.393 55.5147L121.939 65.0607ZM124.5 6C124.5 5.17157 123.828 4.5 123 4.5C122.172 4.5 121.5 5.17157 121.5 6L124.5 6ZM124.5 64L124.5 6L121.5 6L121.5 64L124.5 64Z" fill="black"/>
<path d="M113.5 54.5L102 43M132 55L144 43" stroke="black" stroke-width="3" stroke-linejoin="round"/>
</g>
<defs>
<clipPath id="clip0_90_32">
<rect width="252" height="147" fill="white"/>
</clipPath>
</defs>
</svg>
